Coordinates
version=1
nRows=8
nColumns=63
inDegrees=yes

Units are S.I. units (second, meters, Newtons, ...)
If the header above contains a line with 'inDegrees', this indicates whether rotational values are in degrees (yes) or radians (no).

endheader
time	pelvis_tilt	pelvis_list	pelvis_rotation	pelvis_tx	pelvis_ty	pelvis_tz	hip_flexion_r	hip_adduction_r	hip_rotation_r	knee_angle_r	knee_angle_r_beta	ankle_angle_r	subtalar_angle_r	mtp_angle_r	hip_flexion_l	hip_adduction_l	hip_rotation_l	knee_angle_l	knee_angle_l_beta	ankle_angle_l	subtalar_angle_l	mtp_angle_l	L5_S1_Flex_Ext	L5_S1_Lat_Bending	L5_S1_axial_rotation	L4_L5_Flex_Ext	L4_L5_Lat_Bending	L4_L5_axial_rotation	L3_L4_Flex_Ext	L3_L4_Lat_Bending	L3_L4_axial_rotation	L2_L3_Flex_Ext	L2_L3_Lat_Bending	L2_L3_axial_rotation	L1_L2_Flex_Ext	L1_L2_Lat_Bending	L1_L2_axial_rotation	L1_T12_Flex_Ext	L1_T12_Lat_Bending	L1_T12_axial_rotation	Abs_r3	Abs_r2	Abs_r1	Abs_t1	Abs_t2	neck_flexion	neck_bending	neck_rotation	arm_flex_r	arm_add_r	arm_rot_r	elbow_flex_r	pro_sup_r	wrist_flex_r	wrist_dev_r	arm_flex_l	arm_add_l	arm_rot_l	elbow_flex_l	pro_sup_l	wrist_flex_l	wrist_dev_l
     11.24200000	    -39.67265880	     -0.68916755	     -0.41081591	     -0.13893354	      1.00714677	      0.03241593	     97.61780986	     -4.17377992	      3.62629199	    108.19862029	      1.88842217	     -0.47292416	    -14.37095304	      0.00000000	     91.82389392	     -4.98549900	     -0.29583133	     59.50130677	      1.03849371	     -2.16021930	    -15.63942385	      0.00000000	     -0.05576143	      0.36090964	     -0.02514387	     -0.10355455	      0.48000982	     -0.02671536	     -0.09161045	      0.87751570	     -0.02671536	     -0.06372974	      0.87751570	     -0.02200089	     -0.05178006	      0.73596694	     -0.02042940	     -0.03186208	      0.55904903	     -0.01885790	     -0.39829833	      4.08268203	     -0.13984267	      0.00000000	      0.00000000	      0.00000000	      0.00000000	      0.00000000	     66.60909054	    -13.12196935	     30.46592398	     43.39577587	     51.53255954	      0.00000000	      5.00000014	     62.13484839	    -15.20166573	     25.44153035	     43.63151332	     63.70453515	      0.00000000	      5.00000014
     11.25000000	    -39.58688944	     -1.16072999	     -1.00353887	     -0.13819608	      1.00640589	      0.03269632	     99.28120650	     -3.86036162	      3.14725223	    110.51246804	      1.92880643	      0.53878003	    -14.34181574	      0.00000000	     89.78431355	     -5.60165929	     -0.06151775	     57.29520246	      0.99998993	     -2.68211753	    -15.38052894	      0.00000000	     -0.05370689	      0.43793410	      0.06762961	     -0.09973907	      0.58245236	      0.07185646	     -0.08823505	      1.06479298	      0.07185646	     -0.06138161	      1.06479298	      0.05917591	     -0.04987222	      0.89303522	      0.05494906	     -0.03068812	      0.67835992	      0.05072220	     -0.38362296	      4.95399815	      0.37613558	      0.00000000	      0.00000000	      0.00000000	      0.00000000	      0.00000000	     66.73276142	    -13.21594899	     30.76559863	     43.38593527	     51.56659194	      0.00000000	      5.00000014	     61.78154030	    -15.23486790	     25.27609656	     43.76098928	     63.66594165	      0.00000000	      5.00000014
     11.25800000	    -39.50136863	     -1.55547391	     -1.43832147	     -0.13744605	      1.00579821	      0.03292238	    100.95371547	     -3.69610148	      2.69402253	    112.62987395	      1.96576214	      1.81120391	    -14.26266179	      0.00000000	     87.73738205	     -6.08571681	      0.02968649	     55.21169525	      0.96362587	     -3.03120956	    -15.24392316	      0.00000000	     -0.05392669	      0.50373116	      0.12399531	     -0.10014726	      0.66996244	      0.13174501	     -0.08859616	      1.22477194	      0.13174501	     -0.06163281	      1.22477194	      0.10849589	     -0.05007632	      1.02720858	      0.10074619	     -0.03081371	      0.78027956	      0.09299648	     -0.38519296	      5.69830760	      0.68962470	      0.00000000	      0.00000000	      0.00000000	      0.00000000	      0.00000000	     66.87499762	    -13.24959343	     31.27599762	     43.37272258	     51.62571163	      0.00000000	      5.00000014	     61.43468135	    -15.29052768	     25.01458886	     43.90357937	     63.61500460	      0.00000000	      5.00000014
     11.26700000	    -39.40669887	     -1.92439332	     -1.62318531	     -0.13662915	      1.00519433	      0.03275652	    102.55354066	     -3.82411986	      2.51921388	    114.64257157	      2.00089034	      4.87010750	    -11.88973516	      0.00000000	     85.74856870	     -6.34633838	     -0.03869602	     53.34667355	      0.93107510	     -3.46445438	    -15.54548599	      0.00000000	     -0.05568811	      0.56739921	      0.10487118	     -0.10341840	      0.75464095	      0.11142563	     -0.09149000	      1.37957444	      0.11142563	     -0.06364595	      1.37957444	      0.09176228	     -0.05171198	      1.15704047	      0.08520783	     -0.03182019	      0.87890137	      0.07865338	     -0.39777463	      6.41853333	      0.58326202	      0.00000000	      0.00000000	      0.00000000	      0.00000000	      0.00000000	     67.54178469	    -13.45048694	     33.69640147	     43.03482903	     51.95581090	      0.00000000	      5.00000014	     60.77868760	    -15.29655914	     23.57182217	     44.30491678	     63.49175845	      0.00000000	      5.00000014
     11.27500000	    -39.40044619	     -2.43167454	     -2.00230886	     -0.13599431	      1.00492765	      0.03309997	    104.27673004	     -3.62176434	      1.96371905	    116.18748850	      2.02785422	      5.85836134	    -11.77530288	      0.00000000	     83.94553546	     -6.87997614	      0.14231305	     51.70058169	      0.90234538	     -3.61720246	    -14.97159721	      0.00000000	     -0.05243221	      0.64403872	      0.15580285	     -0.09737186	      0.85657150	      0.16554053	     -0.08614088	      1.56591575	      0.16554053	     -0.05992477	      1.56591575	      0.13632749	     -0.04868855	      1.31332376	      0.12658982	     -0.02995976	      0.99761598	      0.11685214	     -0.37451803	      7.28549482	      0.86652872	      0.00000000	      0.00000000	      0.00000000	      0.00000000	      0.00000000	     67.63431897	    -13.44411347	     33.85995524	     43.06714285	     51.95198540	      0.00000000	      5.00000014	     60.51422480	    -15.32740606	     23.53047132	     44.33650737	     63.40615500	      0.00000000	      5.00000014
     11.28300000	    -39.37655760	     -2.78893205	     -2.14858389	     -0.13537731	      1.00478408	      0.03311676	    105.88438271	     -3.69652645	      1.56546589	    117.51196095	      2.05097063	      7.92556678	    -10.98794577	      0.00000000	     82.10812950	     -7.15761863	     -0.03661468	     50.10228075	      0.87444976	     -3.65495828	    -15.23158686	      0.00000000	     -0.05405702	      0.70206854	      0.14461258	     -0.10038929	      0.93375116	      0.15365086	     -0.08881028	      1.70700946	      0.15365086	     -0.06178177	      1.70700946	      0.12653600	     -0.05019735	      1.43165818	      0.11749772	     -0.03088818	      1.08750418	      0.10845943	     -0.38612389	      7.94193979	      0.80429177	      0.00000000	      0.00000000	      0.00000000	      0.00000000	      0.00000000	     68.05401316	    -13.49174671	     35.22779754	     42.85050119	     52.14794471	      0.00000000	      5.00000014	     60.14619747	    -15.39875295	     22.83245086	     44.51728756	     63.36114529	      0.00000000	      5.00000014
     11.29200000	    -39.42200899	     -3.23991879	     -2.41192523	     -0.13492025	      1.00493720	      0.03344081	    107.54583765	     -3.61149953	      0.97442804	    118.40248408	      2.06651319	      8.71026208	    -11.04871193	      0.00000000	     80.50822463	     -7.58763576	      0.02702184	     48.80341010	      0.85178019	     -3.91872059	    -15.15430182	      0.00000000	     -0.05322882	      0.76723535	      0.17473621	     -0.09885124	      1.02042302	      0.18565722	     -0.08744963	      1.86545604	      0.18565722	     -0.06083522	      1.86545604	      0.15289419	     -0.04942828	      1.56454633	      0.14197317	     -0.03041495	      1.18844756	      0.13105216	     -0.38020813	      8.67911977	      0.97183039	      0.00000000	      0.00000000	      0.00000000	      0.00000000	      0.00000000	     68.15039051	    -13.47248922	     35.40155904	     42.85640211	     52.17604302	      0.00000000	      5.00000014	     59.98655928	    -15.45407827	     22.76026898	     44.51473375	     63.36543670	      0.00000000	      5.00000014
     11.30000000	    -39.48227280	     -3.62476095	     -2.60028477	     -0.13458838	      1.00530969	      0.03370997	    109.08147874	     -3.60166025	      0.37953844	    118.92899176	      2.07570248	      9.76178598	    -11.18257039	      0.00000000	     78.97839323	     -7.95000449	     -0.06323805	     47.63521765	      0.83139139	     -3.99468098	    -15.20620021	      0.00000000	     -0.05513186	      0.82279843	      0.19196517	     -0.10238538	      1.09432191	      0.20396299	     -0.09057613	      2.00055209	      0.20396299	     -0.06301020	      2.00055209	      0.16796952	     -0.05119544	      1.67785055	      0.15597170	     -0.03150234	      1.27451476	      0.14397388	     -0.39380136	      9.30766036	      1.06765268	      0.00000000	      0.00000000	      0.00000000	      0.00000000	      0.00000000	     68.33466249	    -13.47560509	     35.74596720	     42.83857611	     52.22856843	      0.00000000	      5.00000014	     59.82409175	    -15.51214797	     22.55425420	     44.57628280	     63.35687946	      0.00000000	      5.00000014
